<?xml version="1.0" encoding="UTF-8" standalone="no"?><!DOCTYPE svg PUBLIC "-//W3C//DTD SVG 1.1//EN" "http://www.w3.org/Graphics/SVG/1.1/DTD/svg11.dtd"><svg width="1080px" height="1080px" version="1.1" xmlns="http://www.w3.org/2000/svg" xmlns:xlink="http://www.w3.org/1999/xlink" xml:space="preserve" xmlns:serif="http://www.serif.com/" style="fill-rule:evenodd;clip-rule:evenodd;stroke-linejoin:round;stroke-miterlimit:2;"><path d="M1080,270L1080,810C1080,959 959,1080 810,1080L270,1080C121,1080 0,959 0,810L0,270C0,121 121,0 270,0L810,0C959,0 1080,121 1080,270Z" style="fill:white;"/><path d="M1080,270L1080,810C1080,959 959,1080 810,1080L270,1080C121,1080 0,959 0,810L0,270C0,121 121,0 270,0L810,0C959,0 1080,121 1080,270ZM1059,270C1059,132 948,21 810,21L270,21C132,21 21,132 21,270L21,810C21,948 132,1059 270,1059L810,1059C948,1059 1059,948 1059,810L1059,270Z"/><g transform="matrix(1.434849,0,0,1.434849,86.412919,-144.0292)"><path d="M89,701L89,254L313,478L543,249L543,697L89,701Z"/><path d="M89,701L89,254L313,478L543,249L543,697L89,701ZM104,686L528,683L528,284L324,488C318,494 309,494 303,488L104,289L104,686Z"/></g></svg>