<?xml version="1.0" encoding="UTF-8" standalone="no"?><!DOCTYPE svg PUBLIC "-//W3C//DTD SVG 1.1//EN" "http://www.w3.org/Graphics/SVG/1.1/DTD/svg11.dtd"><svg width="100%" height="100%" viewBox="0 0 596 596" version="1.1" xmlns="http://www.w3.org/2000/svg" xmlns:xlink="http://www.w3.org/1999/xlink" xml:space="preserve" xmlns:serif="http://www.serif.com/" style="fill-rule:evenodd;clip-rule:evenodd;stroke-linejoin:round;stroke-miterlimit:2;"><path d="M457.033,287.817c3.239,2.22 5.176,5.894 5.176,9.821c0,3.927 -1.936,7.601 -5.176,9.821c-50.787,34.802 -222.184,152.252 -279.221,191.336c-3.644,2.497 -8.372,2.771 -12.28,0.711c-3.908,-2.06 -6.355,-6.114 -6.355,-10.532l-0,-382.673c0,-4.418 2.446,-8.473 6.355,-10.532c3.908,-2.06 8.636,-1.786 12.28,0.711c57.036,39.084 228.433,156.534 279.221,191.336Z" style="fill-opacity:0.5;"/><path d="M478.724,256.163c13.68,9.374 21.858,24.891 21.858,41.475c0,16.584 -8.178,32.101 -21.858,41.475l-279.221,191.336c-15.391,10.547 -35.356,11.703 -51.862,3.005c-16.506,-8.699 -26.837,-25.822 -26.837,-44.48l0,-382.673c0,-18.658 10.332,-35.781 26.837,-44.48c16.506,-8.699 36.471,-7.542 51.862,3.005l279.221,191.336Zm-21.691,31.654l-279.221,-191.336c-3.644,-2.497 -8.372,-2.771 -12.28,-0.711c-3.908,2.06 -6.355,6.114 -6.355,10.532l0,382.673c0,4.418 2.446,8.473 6.355,10.532c3.908,2.06 8.636,1.786 12.28,-0.711l279.221,-191.336c3.239,-2.22 5.176,-5.894 5.176,-9.821c-0,-3.927 -1.936,-7.601 -5.176,-9.821Z" style="fill:#fff;"/></svg>