<?xml version="1.0" encoding="UTF-8" standalone="no"?><!DOCTYPE svg PUBLIC "-//W3C//DTD SVG 1.1//EN" "http://www.w3.org/Graphics/SVG/1.1/DTD/svg11.dtd"><svg width="100%" height="100%" viewBox="0 0 596 596" version="1.1" xmlns="http://www.w3.org/2000/svg" xmlns:xlink="http://www.w3.org/1999/xlink" xml:space="preserve" xmlns:serif="http://www.serif.com/" style="fill-rule:evenodd;clip-rule:evenodd;stroke-linejoin:round;stroke-miterlimit:2;"><path d="M457.033,287.817c3.239,2.22 5.176,5.894 5.176,9.821c0,3.927 -1.936,7.601 -5.176,9.821c-50.787,34.802 -222.184,152.252 -279.221,191.336c-3.644,2.497 -8.372,2.771 -12.28,0.711c-3.908,-2.06 -6.355,-6.114 -6.355,-10.532l-0,-382.673c0,-4.418 2.446,-8.473 6.355,-10.532c3.908,-2.06 8.636,-1.786 12.28,0.711c57.036,39.084 228.433,156.534 279.221,191.336Z" style="fill:#fff;"/><path d="M471.165,267.194c10.041,6.881 16.044,18.271 16.044,30.444c0,12.173 -6.003,23.563 -16.044,30.444l-279.221,191.336c-11.297,7.741 -25.952,8.59 -38.068,2.205c-12.116,-6.385 -19.699,-18.954 -19.699,-32.649l0,-382.673c0,-13.695 7.584,-26.264 19.699,-32.649c12.116,-6.385 26.771,-5.536 38.068,2.205l279.221,191.336Zm-14.132,20.623l-279.221,-191.336c-3.644,-2.497 -8.372,-2.771 -12.28,-0.711c-3.908,2.06 -6.355,6.114 -6.355,10.532l0,382.673c0,4.418 2.446,8.473 6.355,10.532c3.908,2.06 8.636,1.786 12.28,-0.711l279.221,-191.336c3.239,-2.22 5.176,-5.894 5.176,-9.821c-0,-3.927 -1.936,-7.601 -5.176,-9.821Z"/></svg>